<?xml version="1.0" encoding="utf-8"?>
<!-- Svg Vector Icons : http://www.onlinewebfonts.com/icon -->
<!DOCTYPE svg PUBLIC "-//W3C//DTD SVG 1.1//EN" "http://www.w3.org/Graphics/SVG/1.1/DTD/svg11.dtd">
<svg version="1.1" xmlns="http://www.w3.org/2000/svg" xmlns:xlink="http://www.w3.org/1999/xlink" x="0px" y="0px" viewBox="0 0 1000 1000" enable-background="new 0 0 1000 1000" xml:space="preserve" width="40" height="40">
<metadata> Svg Vector Icons : http://www.onlinewebfonts.com/icon </metadata>
<g><g transform="translate(0.000000,511.000000) scale(0.100000,-0.100000)"><path d="M4349.5,4969c-1061.8-148-2012.5-610.7-2762-1346.3c-434.9-425.6-721.7-821.2-985.4-1357.9c-1170.5-2378-226.7-5262.6,2128.2-6495.6c703.2-367.8,1443.5-548.2,2255.4-548.2c603.8,0,1020.1,64.8,1552.2,242.9C8390.7-3920.8,9688.4-2290,9878.1-339.9C10016.9,1087.4,9489.5,2547,8467,3571.8c-721.7,721.7-1586.9,1170.5-2625.5,1367.1C5501.5,5003.7,4705.7,5019.9,4349.5,4969z M5369.6,4103.8c1832.1-187.4,3277.8-1536,3583.2-3342.6c67.1-397.9,57.8-1043.3-20.8-1429.6c-224.4-1108-939.2-2114.3-1903.8-2678.7c-409.5-240.6-962.3-437.2-1441.1-508.9c-300.7-46.3-957.7-39.3-1249.1,11.6c-862.8,155-1563.7,520.5-2174.4,1133.5c-335.4,337.7-541.3,619.9-740.2,1020.1c-286.8,573.7-400.2,1027.1-421,1665.5c-18.5,592.2,48.6,1024.8,240.6,1538.3C1874.3,3204,3593.1,4281.9,5369.6,4103.8z" fill="##444444"/><path d="M4821.4,1788.3c-393.3-39.3-714.8-192-1003.9-483.5c-333.1-330.8-478.8-659.3-502-1112.7c-34.7-677.8,326.2-1295.4,929.9-1593.8c268.3-134.2,437.2-171.2,751.8-171.2c314.6,0,481.1,37,751.8,168.9c562.1,277.6,902.2,800.4,932.2,1427.2c13.9,326.2-30.1,543.6-173.5,839.7c-87.9,185.1-136.5,249.8-316.9,430.3c-175.8,178.1-245.2,231.3-423.3,319.2C5462.2,1762.8,5149.9,1823,4821.4,1788.3z" fill="#56c3b2"/></g></g>
</svg>