<?xml version="1.0" encoding="utf-8"?>
<!-- Svg Vector Icons : http://www.onlinewebfonts.com/icon -->
<!DOCTYPE svg PUBLIC "-//W3C//DTD SVG 1.1//EN" "http://www.w3.org/Graphics/SVG/1.1/DTD/svg11.dtd">
<svg version="1.1" xmlns="http://www.w3.org/2000/svg" xmlns:xlink="http://www.w3.org/1999/xlink" x="0px" y="0px" viewBox="0 0 1000 1000" enable-background="new 0 0 1000 1000" xml:space="preserve" width="40" height="40">
<metadata> Svg Vector Icons : http://www.onlinewebfonts.com/icon </metadata>
<g><g transform="translate(0.000000,511.000000) scale(0.100000,-0.100000)"><path d="M4495.7,4991.1c-673.4-74.4-1407.1-317.6-1984.1-659.3c-365.8-217.1-631.2-426.2-962.9-755.8c-414.1-416.1-665.4-755.8-908.6-1232.2c-808.1-1586-703.6-3453.5,273.4-4935c203-303.5,361.8-498.5,635.2-769.9c792-788,1779-1264.4,2896.7-1399.1c291.5-34.2,896.5-30.1,1186,10c1073.4,150.8,2004.2,599,2768,1336.8c679.4,653.3,1137.8,1447.3,1360.9,2355.9c199,810.1,184.9,1726.7-40.2,2500.7c-184.9,637.2-514.6,1266.4-924.7,1771c-426.2,524.7-1015.1,991-1636.3,1294.6c-474.4,231.2-928.7,373.9-1437.3,452.3C5470.7,4999.1,4743,5017.2,4495.7,4991.1z M5416.4,3943.8c737.7-82.4,1417.2-361.8,1992.1-822.2C8668.9,2112.5,9163.4,448.1,8664.9-1099.7c-88.5-275.4-335.7-765.9-506.6-1003.1c-578.9-812.1-1415.2-1362.9-2368-1559.9c-864.4-178.9-1738.8-64.3-2528.8,333.7c-379.9,193-653.3,390-972.9,707.6C1741.8-2082.7,1386-1429.4,1227.2-677.6c-176.9,840.2-66.3,1708.7,313.6,2486.6c383.9,784,1001.1,1395,1793.1,1775c546.8,261.3,1027.2,373.9,1630.3,379.9C5104.8,3963.9,5307.8,3955.9,5416.4,3943.8z" fill="#444444"/></g></g>
</svg>