<svg version="1.1" xmlns="http://www.w3.org/2000/svg" xmlns:xlink="http://www.w3.org/1999/xlink" x="0px" y="0px" viewBox="0 0 1000 1000" enable-background="new 0 0 1000 1000" xml:space="preserve" fill="#444444" width="35" height="35">
<g><path d="M990,979.1c0,7.4-6,13.5-13.5,13.5l-953.1,0c-7.4,0-13.5-6-13.5-13.5V20.9c0-7.4,6-13.5,13.5-13.5h953.1c7.4,0,13.5,6,13.5,13.5L990,979.1L990,979.1z M971,46.1c0-8.3-6.7-15.1-14.9-15.1H45.8c-8.2,0-14.9,6.7-14.9,15.1v908.8c0,8.3,6.7,15.1,14.9,15.1h910.3c8.2,0,14.9-6.7,14.9-15.1V46.1z"/></g>
</svg>